<mxfile host="app.diagrams.net" modified="2024-04-17T18:38:42.433Z" agent="Mozilla/5.0 (Windows NT 10.0; Win64; x64; rv:124.0) Gecko/20100101 Firefox/124.0" etag="Hcb1afCwnCOqGrFpOZBA" version="24.2.2" type="device">
  <diagram name="Страница 1" id="HlI3dwkvkYv4sju7Trsw">
    <mxGraphModel dx="1562" dy="2015" grid="1" gridSize="10" guides="1" tooltips="1" connect="1" arrows="1" fold="1" page="1" pageScale="1" pageWidth="827" pageHeight="1169" background="#ffffff" math="0" shadow="0">
      <root>
        <mxCell id="0" />
        <mxCell id="1" parent="0" />
        <mxCell id="84ayHc_WrZPeT4-ki9Za-5" value="Client" style="swimlane;fontStyle=1;align=center;verticalAlign=top;childLayout=stackLayout;horizontal=1;startSize=26;horizontalStack=0;resizeParent=1;resizeParentMax=0;resizeLast=0;collapsible=1;marginBottom=0;whiteSpace=wrap;html=1;" vertex="1" parent="1">
          <mxGeometry x="70" y="100" width="350" height="190" as="geometry" />
        </mxCell>
        <mxCell id="84ayHc_WrZPeT4-ki9Za-6" value="&lt;div&gt;-clientId: Long&lt;/div&gt;&lt;div&gt;-credits: CreditHistory&lt;/div&gt;&lt;div&gt;-address: String&lt;/div&gt;&lt;div&gt;-document: String&lt;br&gt;&lt;/div&gt;&lt;div&gt;-consultations[]: Consultation&lt;/div&gt;" style="text;strokeColor=none;fillColor=none;align=left;verticalAlign=top;spacingLeft=4;spacingRight=4;overflow=hidden;rotatable=0;points=[[0,0.5],[1,0.5]];portConstraint=eastwest;whiteSpace=wrap;html=1;" vertex="1" parent="84ayHc_WrZPeT4-ki9Za-5">
          <mxGeometry y="26" width="350" height="84" as="geometry" />
        </mxCell>
        <mxCell id="84ayHc_WrZPeT4-ki9Za-7" value="" style="line;strokeWidth=1;fillColor=none;align=left;verticalAlign=middle;spacingTop=-1;spacingLeft=3;spacingRight=3;rotatable=0;labelPosition=right;points=[];portConstraint=eastwest;strokeColor=inherit;" vertex="1" parent="84ayHc_WrZPeT4-ki9Za-5">
          <mxGeometry y="110" width="350" height="8" as="geometry" />
        </mxCell>
        <mxCell id="84ayHc_WrZPeT4-ki9Za-8" value="&lt;div&gt;+askForCredit()&lt;/div&gt;&lt;div&gt;+askForNewCreditConditions()&lt;/div&gt;&lt;div&gt;+appointConsultation()&lt;/div&gt;&lt;div&gt;+searchCredits()&lt;/div&gt;" style="text;strokeColor=none;fillColor=none;align=left;verticalAlign=top;spacingLeft=4;spacingRight=4;overflow=hidden;rotatable=0;points=[[0,0.5],[1,0.5]];portConstraint=eastwest;whiteSpace=wrap;html=1;" vertex="1" parent="84ayHc_WrZPeT4-ki9Za-5">
          <mxGeometry y="118" width="350" height="72" as="geometry" />
        </mxCell>
        <mxCell id="84ayHc_WrZPeT4-ki9Za-9" value="Credit" style="swimlane;fontStyle=1;align=center;verticalAlign=top;childLayout=stackLayout;horizontal=1;startSize=26;horizontalStack=0;resizeParent=1;resizeParentMax=0;resizeLast=0;collapsible=1;marginBottom=0;whiteSpace=wrap;html=1;" vertex="1" parent="1">
          <mxGeometry x="550" y="240" width="220" height="144" as="geometry" />
        </mxCell>
        <mxCell id="84ayHc_WrZPeT4-ki9Za-10" value="-creditConditions: CreditConditions&lt;br&gt;&lt;div&gt;-client: Client&lt;br&gt;&lt;/div&gt;&lt;div&gt;-status: String&lt;/div&gt;&lt;div&gt;-creditCondition: CreditConditions&lt;br&gt;&lt;/div&gt;&lt;div&gt;-target: String&lt;br&gt;&lt;/div&gt;" style="text;strokeColor=none;fillColor=none;align=left;verticalAlign=top;spacingLeft=4;spacingRight=4;overflow=hidden;rotatable=0;points=[[0,0.5],[1,0.5]];portConstraint=eastwest;whiteSpace=wrap;html=1;" vertex="1" parent="84ayHc_WrZPeT4-ki9Za-9">
          <mxGeometry y="26" width="220" height="84" as="geometry" />
        </mxCell>
        <mxCell id="84ayHc_WrZPeT4-ki9Za-11" value="" style="line;strokeWidth=1;fillColor=none;align=left;verticalAlign=middle;spacingTop=-1;spacingLeft=3;spacingRight=3;rotatable=0;labelPosition=right;points=[];portConstraint=eastwest;strokeColor=inherit;" vertex="1" parent="84ayHc_WrZPeT4-ki9Za-9">
          <mxGeometry y="110" width="220" height="8" as="geometry" />
        </mxCell>
        <mxCell id="84ayHc_WrZPeT4-ki9Za-12" value="+ method(type): type" style="text;strokeColor=none;fillColor=none;align=left;verticalAlign=top;spacingLeft=4;spacingRight=4;overflow=hidden;rotatable=0;points=[[0,0.5],[1,0.5]];portConstraint=eastwest;whiteSpace=wrap;html=1;" vertex="1" parent="84ayHc_WrZPeT4-ki9Za-9">
          <mxGeometry y="118" width="220" height="26" as="geometry" />
        </mxCell>
        <mxCell id="84ayHc_WrZPeT4-ki9Za-13" value="CreditHistory" style="swimlane;fontStyle=1;align=center;verticalAlign=top;childLayout=stackLayout;horizontal=1;startSize=26;horizontalStack=0;resizeParent=1;resizeParentMax=0;resizeLast=0;collapsible=1;marginBottom=0;whiteSpace=wrap;html=1;" vertex="1" parent="1">
          <mxGeometry x="480" y="-10" width="160" height="86" as="geometry" />
        </mxCell>
        <mxCell id="84ayHc_WrZPeT4-ki9Za-14" value="-credits[]: Credit" style="text;strokeColor=none;fillColor=none;align=left;verticalAlign=top;spacingLeft=4;spacingRight=4;overflow=hidden;rotatable=0;points=[[0,0.5],[1,0.5]];portConstraint=eastwest;whiteSpace=wrap;html=1;" vertex="1" parent="84ayHc_WrZPeT4-ki9Za-13">
          <mxGeometry y="26" width="160" height="26" as="geometry" />
        </mxCell>
        <mxCell id="84ayHc_WrZPeT4-ki9Za-15" value="" style="line;strokeWidth=1;fillColor=none;align=left;verticalAlign=middle;spacingTop=-1;spacingLeft=3;spacingRight=3;rotatable=0;labelPosition=right;points=[];portConstraint=eastwest;strokeColor=inherit;" vertex="1" parent="84ayHc_WrZPeT4-ki9Za-13">
          <mxGeometry y="52" width="160" height="8" as="geometry" />
        </mxCell>
        <mxCell id="84ayHc_WrZPeT4-ki9Za-16" value="+getChatacteristics()" style="text;strokeColor=none;fillColor=none;align=left;verticalAlign=top;spacingLeft=4;spacingRight=4;overflow=hidden;rotatable=0;points=[[0,0.5],[1,0.5]];portConstraint=eastwest;whiteSpace=wrap;html=1;" vertex="1" parent="84ayHc_WrZPeT4-ki9Za-13">
          <mxGeometry y="60" width="160" height="26" as="geometry" />
        </mxCell>
        <mxCell id="84ayHc_WrZPeT4-ki9Za-17" value="PossibleCreditConditions" style="swimlane;fontStyle=1;align=center;verticalAlign=top;childLayout=stackLayout;horizontal=1;startSize=26;horizontalStack=0;resizeParent=1;resizeParentMax=0;resizeLast=0;collapsible=1;marginBottom=0;whiteSpace=wrap;html=1;" vertex="1" parent="1">
          <mxGeometry x="750" y="-50" width="180" height="92" as="geometry" />
        </mxCell>
        <mxCell id="84ayHc_WrZPeT4-ki9Za-18" value="-target: String&lt;br&gt;&lt;div&gt;-conditions[]: CreditConditions&lt;/div&gt;" style="text;strokeColor=none;fillColor=none;align=left;verticalAlign=top;spacingLeft=4;spacingRight=4;overflow=hidden;rotatable=0;points=[[0,0.5],[1,0.5]];portConstraint=eastwest;whiteSpace=wrap;html=1;" vertex="1" parent="84ayHc_WrZPeT4-ki9Za-17">
          <mxGeometry y="26" width="180" height="32" as="geometry" />
        </mxCell>
        <mxCell id="84ayHc_WrZPeT4-ki9Za-19" value="" style="line;strokeWidth=1;fillColor=none;align=left;verticalAlign=middle;spacingTop=-1;spacingLeft=3;spacingRight=3;rotatable=0;labelPosition=right;points=[];portConstraint=eastwest;strokeColor=inherit;" vertex="1" parent="84ayHc_WrZPeT4-ki9Za-17">
          <mxGeometry y="58" width="180" height="8" as="geometry" />
        </mxCell>
        <mxCell id="84ayHc_WrZPeT4-ki9Za-20" value="+ method(type): type" style="text;strokeColor=none;fillColor=none;align=left;verticalAlign=top;spacingLeft=4;spacingRight=4;overflow=hidden;rotatable=0;points=[[0,0.5],[1,0.5]];portConstraint=eastwest;whiteSpace=wrap;html=1;" vertex="1" parent="84ayHc_WrZPeT4-ki9Za-17">
          <mxGeometry y="66" width="180" height="26" as="geometry" />
        </mxCell>
        <mxCell id="84ayHc_WrZPeT4-ki9Za-21" value="CreditConditions" style="swimlane;fontStyle=1;align=center;verticalAlign=top;childLayout=stackLayout;horizontal=1;startSize=26;horizontalStack=0;resizeParent=1;resizeParentMax=0;resizeLast=0;collapsible=1;marginBottom=0;whiteSpace=wrap;html=1;" vertex="1" parent="1">
          <mxGeometry x="790" y="80" width="170" height="78" as="geometry" />
        </mxCell>
        <mxCell id="84ayHc_WrZPeT4-ki9Za-22" value="&lt;div&gt;-creditPeriod: CreditPeriod&lt;/div&gt;&lt;div&gt;-creditPercent: CreditPercent&lt;/div&gt;" style="text;strokeColor=none;fillColor=none;align=left;verticalAlign=top;spacingLeft=4;spacingRight=4;overflow=hidden;rotatable=0;points=[[0,0.5],[1,0.5]];portConstraint=eastwest;whiteSpace=wrap;html=1;" vertex="1" parent="84ayHc_WrZPeT4-ki9Za-21">
          <mxGeometry y="26" width="170" height="44" as="geometry" />
        </mxCell>
        <mxCell id="84ayHc_WrZPeT4-ki9Za-23" value="" style="line;strokeWidth=1;fillColor=none;align=left;verticalAlign=middle;spacingTop=-1;spacingLeft=3;spacingRight=3;rotatable=0;labelPosition=right;points=[];portConstraint=eastwest;strokeColor=inherit;" vertex="1" parent="84ayHc_WrZPeT4-ki9Za-21">
          <mxGeometry y="70" width="170" height="8" as="geometry" />
        </mxCell>
        <mxCell id="84ayHc_WrZPeT4-ki9Za-26" value="CreditPeriod" style="swimlane;fontStyle=1;align=center;verticalAlign=top;childLayout=stackLayout;horizontal=1;startSize=26;horizontalStack=0;resizeParent=1;resizeParentMax=0;resizeLast=0;collapsible=1;marginBottom=0;whiteSpace=wrap;html=1;" vertex="1" parent="1">
          <mxGeometry x="990" y="200" width="160" height="68" as="geometry" />
        </mxCell>
        <mxCell id="84ayHc_WrZPeT4-ki9Za-27" value="&lt;div&gt;-start: String&lt;/div&gt;&lt;div&gt;-end: String&lt;br&gt;&lt;/div&gt;" style="text;strokeColor=none;fillColor=none;align=left;verticalAlign=top;spacingLeft=4;spacingRight=4;overflow=hidden;rotatable=0;points=[[0,0.5],[1,0.5]];portConstraint=eastwest;whiteSpace=wrap;html=1;" vertex="1" parent="84ayHc_WrZPeT4-ki9Za-26">
          <mxGeometry y="26" width="160" height="34" as="geometry" />
        </mxCell>
        <mxCell id="84ayHc_WrZPeT4-ki9Za-28" value="" style="line;strokeWidth=1;fillColor=none;align=left;verticalAlign=middle;spacingTop=-1;spacingLeft=3;spacingRight=3;rotatable=0;labelPosition=right;points=[];portConstraint=eastwest;strokeColor=inherit;" vertex="1" parent="84ayHc_WrZPeT4-ki9Za-26">
          <mxGeometry y="60" width="160" height="8" as="geometry" />
        </mxCell>
        <mxCell id="84ayHc_WrZPeT4-ki9Za-30" value="CreditPercent" style="swimlane;fontStyle=1;align=center;verticalAlign=top;childLayout=stackLayout;horizontal=1;startSize=26;horizontalStack=0;resizeParent=1;resizeParentMax=0;resizeLast=0;collapsible=1;marginBottom=0;whiteSpace=wrap;html=1;" vertex="1" parent="1">
          <mxGeometry x="1000" y="330" width="160" height="60" as="geometry" />
        </mxCell>
        <mxCell id="84ayHc_WrZPeT4-ki9Za-31" value="-percent: Float" style="text;strokeColor=none;fillColor=none;align=left;verticalAlign=top;spacingLeft=4;spacingRight=4;overflow=hidden;rotatable=0;points=[[0,0.5],[1,0.5]];portConstraint=eastwest;whiteSpace=wrap;html=1;" vertex="1" parent="84ayHc_WrZPeT4-ki9Za-30">
          <mxGeometry y="26" width="160" height="26" as="geometry" />
        </mxCell>
        <mxCell id="84ayHc_WrZPeT4-ki9Za-32" value="" style="line;strokeWidth=1;fillColor=none;align=left;verticalAlign=middle;spacingTop=-1;spacingLeft=3;spacingRight=3;rotatable=0;labelPosition=right;points=[];portConstraint=eastwest;strokeColor=inherit;" vertex="1" parent="84ayHc_WrZPeT4-ki9Za-30">
          <mxGeometry y="52" width="160" height="8" as="geometry" />
        </mxCell>
        <mxCell id="84ayHc_WrZPeT4-ki9Za-38" value="Consultation" style="swimlane;fontStyle=1;align=center;verticalAlign=top;childLayout=stackLayout;horizontal=1;startSize=26;horizontalStack=0;resizeParent=1;resizeParentMax=0;resizeLast=0;collapsible=1;marginBottom=0;whiteSpace=wrap;html=1;" vertex="1" parent="1">
          <mxGeometry x="750" y="590" width="160" height="114" as="geometry" />
        </mxCell>
        <mxCell id="84ayHc_WrZPeT4-ki9Za-39" value="&lt;div&gt;-about: String&lt;/div&gt;&lt;div&gt;-start: String&lt;/div&gt;&lt;div&gt;-consultant: String&lt;br&gt;&lt;/div&gt;" style="text;strokeColor=none;fillColor=none;align=left;verticalAlign=top;spacingLeft=4;spacingRight=4;overflow=hidden;rotatable=0;points=[[0,0.5],[1,0.5]];portConstraint=eastwest;whiteSpace=wrap;html=1;" vertex="1" parent="84ayHc_WrZPeT4-ki9Za-38">
          <mxGeometry y="26" width="160" height="54" as="geometry" />
        </mxCell>
        <mxCell id="84ayHc_WrZPeT4-ki9Za-40" value="" style="line;strokeWidth=1;fillColor=none;align=left;verticalAlign=middle;spacingTop=-1;spacingLeft=3;spacingRight=3;rotatable=0;labelPosition=right;points=[];portConstraint=eastwest;strokeColor=inherit;" vertex="1" parent="84ayHc_WrZPeT4-ki9Za-38">
          <mxGeometry y="80" width="160" height="8" as="geometry" />
        </mxCell>
        <mxCell id="84ayHc_WrZPeT4-ki9Za-41" value="+ method(type): type" style="text;strokeColor=none;fillColor=none;align=left;verticalAlign=top;spacingLeft=4;spacingRight=4;overflow=hidden;rotatable=0;points=[[0,0.5],[1,0.5]];portConstraint=eastwest;whiteSpace=wrap;html=1;" vertex="1" parent="84ayHc_WrZPeT4-ki9Za-38">
          <mxGeometry y="88" width="160" height="26" as="geometry" />
        </mxCell>
        <mxCell id="84ayHc_WrZPeT4-ki9Za-46" value="CreditsInformation" style="swimlane;fontStyle=1;align=center;verticalAlign=top;childLayout=stackLayout;horizontal=1;startSize=26;horizontalStack=0;resizeParent=1;resizeParentMax=0;resizeLast=0;collapsible=1;marginBottom=0;whiteSpace=wrap;html=1;" vertex="1" parent="1">
          <mxGeometry x="160" y="459" width="206" height="86" as="geometry" />
        </mxCell>
        <mxCell id="84ayHc_WrZPeT4-ki9Za-47" value="-credits[]: PosibleCreditConditions" style="text;strokeColor=none;fillColor=none;align=left;verticalAlign=top;spacingLeft=4;spacingRight=4;overflow=hidden;rotatable=0;points=[[0,0.5],[1,0.5]];portConstraint=eastwest;whiteSpace=wrap;html=1;" vertex="1" parent="84ayHc_WrZPeT4-ki9Za-46">
          <mxGeometry y="26" width="206" height="26" as="geometry" />
        </mxCell>
        <mxCell id="84ayHc_WrZPeT4-ki9Za-48" value="" style="line;strokeWidth=1;fillColor=none;align=left;verticalAlign=middle;spacingTop=-1;spacingLeft=3;spacingRight=3;rotatable=0;labelPosition=right;points=[];portConstraint=eastwest;strokeColor=inherit;" vertex="1" parent="84ayHc_WrZPeT4-ki9Za-46">
          <mxGeometry y="52" width="206" height="8" as="geometry" />
        </mxCell>
        <mxCell id="84ayHc_WrZPeT4-ki9Za-49" value="+ method(type): type" style="text;strokeColor=none;fillColor=none;align=left;verticalAlign=top;spacingLeft=4;spacingRight=4;overflow=hidden;rotatable=0;points=[[0,0.5],[1,0.5]];portConstraint=eastwest;whiteSpace=wrap;html=1;" vertex="1" parent="84ayHc_WrZPeT4-ki9Za-46">
          <mxGeometry y="60" width="206" height="26" as="geometry" />
        </mxCell>
      </root>
    </mxGraphModel>
  </diagram>
</mxfile>
